<svg xmlns="http://www.w3.org/2000/svg" width="1024" height="1024" preserveAspectRatio="none" style="display:block" viewBox="0 0 2048 2048">
  <defs>
    <linearGradient id="k" x1="711.805" x2="651.614" y1="1101.11" y2="1073.59" gradientUnits="userSpaceOnUse">
      <stop class="stop0" offset="0" stop-color="#ebddd5"/>
      <stop class="stop1" offset="1" stop-color="#fffef2"/>
    </linearGradient>
    <linearGradient id="j" x1="270.69" x2="271.577" y1="458.592" y2="569.999" gradientUnits="userSpaceOnUse">
      <stop class="stop0" offset="0" stop-color="#fec161"/>
      <stop class="stop1" offset="1" stop-color="#ffe99f"/>
    </linearGradient>
    <linearGradient id="i" x1="1106.86" x2="839.197" y1="1008.48" y2="1397.36" gradientUnits="userSpaceOnUse">
      <stop class="stop0" offset="0" stop-color="#b1491a"/>
      <stop class="stop1" offset="1" stop-color="#ff781f"/>
    </linearGradient>
    <linearGradient id="h" x1="1022.26" x2="910.584" y1="1351.49" y2="1035.89" gradientUnits="userSpaceOnUse">
      <stop class="stop0" offset="0" stop-color="#ff9a2c"/>
      <stop class="stop1" offset="1" stop-color="#ffc86c"/>
    </linearGradient>
    <linearGradient id="g" x1="502.005" x2="395.799" y1="810.754" y2="841.217" gradientUnits="userSpaceOnUse">
      <stop class="stop0" offset="0" stop-color="#fd972f"/>
      <stop class="stop1" offset="1" stop-color="#ffc763"/>
    </linearGradient>
    <linearGradient id="f" x1="1462.69" x2="1515.24" y1="710.604" y2="620.474" gradientUnits="userSpaceOnUse">
      <stop class="stop0" offset="0" stop-color="#feb851"/>
      <stop class="stop1" offset="1" stop-color="#ffda86"/>
    </linearGradient>
    <linearGradient id="e" x1="1204.48" x2="723.373" y1="1130.04" y2="913.331" gradientUnits="userSpaceOnUse">
      <stop class="stop0" offset="0" stop-color="#ffac42"/>
      <stop class="stop1" offset="1" stop-color="#ffca67"/>
    </linearGradient>
    <linearGradient id="d" x1="1703.67" x2="1686.21" y1="1889.49" y2="1902.61" gradientUnits="userSpaceOnUse">
      <stop class="stop0" offset="0" stop-color="#a18842"/>
      <stop class="stop1" offset="1" stop-color="#ada149"/>
    </linearGradient>
    <linearGradient id="c" x1="1942.88" x2="1766.66" y1="1922.78" y2="1976.3" gradientUnits="userSpaceOnUse">
      <stop class="stop0" offset="0" stop-color="#9f3713"/>
      <stop class="stop1" offset="1" stop-color="#cd521d"/>
    </linearGradient>
    <linearGradient id="b" x1="1336.5" x2="1117.06" y1="1598.71" y2="2033.43" gradientUnits="userSpaceOnUse">
      <stop class="stop0" offset="0" stop-color="#6e622a"/>
      <stop class="stop1" offset="1" stop-color="#86763a"/>
    </linearGradient>
    <linearGradient id="a" x1="1420.34" x2="1594.81" y1="2063.53" y2="1506.68" gradientUnits="userSpaceOnUse">
      <stop class="stop0" offset="0" stop-color="#a79948"/>
      <stop class="stop1" offset="1" stop-color="#e3cd5e"/>
    </linearGradient>
  </defs>
  <path fill="#120603" d="M623.958 390.374c9.409-7.916 17.236-15.99 27.399-23.668 34.79-26.284 71.52-44.759 112.271-59.878 18.202-6.754 36.395-10.887 53.403-17.812 3.497-1.424 24.057-16.975 28.969-20.344a393.9 393.9 0 0 1 60.058-34.143c95.622-43.541 176.212-51.188 279.852-33.354 15.37 2.647 44.92 8.907 59.21 14.246 6.79 1.301 11.22 2.683 17.85 4.767 113.63 37.966 207.49 103.437 263.48 212.679 16.99 33.138 31.82 74.113 38.37 110.625 19.07-10.344 72.32-18.264 94.38-20.594 41.04-4.226 82.38-4.812 123.61-5.365 25.91-.347 51.68-1.774 77.65-1.728 30.74.054 61.86-2.669 92.62-1.678 16.34.526 31.32 5.735 38.71 21.518 8.37 17.725 6.98 39.189 7.42 58.377-.39 81.516-12.35 168.452-38.81 245.259-38.01 110.308-109.22 195.399-216.44 243.559-33.15 14.88-73.06 30.51-107.86 42.84-6.99 9.86-13.14 20.11-20.23 29.96-21.26 29.79-47.74 55.48-78.16 75.82-8.55 5.78-24.95 16.37-34.21 20.49 6.53 18.98 11.43 39.5 17.63 58.89 13.48 43.1 29.62 85.31 48.32 126.41 3.35 7.3 13.23 29.48 17.03 34.61 41.18 12.26 87.13 24.25 126.59 41.14 11.82 5.17 23.42 10.84 34.76 16.98 5.13 2.83 19.35 12.04 24.2 13.23 41.5 10.2 130.89 37.79 144.83 83.97-7.88 19.76-13.35 24.52-28.13 40.01 31.28 19.58 69.35 31.38 103.37 45.33 12.05 4.95 16.48 8.52 20.24 21.04-9.5 33.87-45.01 43.63-72.18 58.36 19.46 54.56 35.37 111.48 50.24 167.45 4.34 16.34 7.82 32.87 11.81 49.29.72 2.99 3.34 14.8 4.38 17.09 1.22 7.81 2.92 14.56 4.79 22.25H921.216c40.815-61 96.554-120.41 145.884-174.63-21.86-18.7-31.85-18.52-46.04-46.43-14.33-3.8-43.415-10.6-52.158-21.61-14.908-18.77 39.868-52.97 51.908-61.33-8.71-3.97-29.737-6.32-30.608-17.69 5.232-17.06 57.228-44.62 73.818-53.46-1.22-2.98-1.96-6.14-2.19-9.35-1.98-23.43 15.24-50.58 29.77-67.37 47.44-54.86 107.42-70.13 175.7-76.3 15.05-31.33 12.52-59.29-18.46-80.53-2.38-1.42-5-1.22-7.3.09-30.3 17.27-64.55 33.3-98.54 42.45-104.39 28.08-227.221 24.84-323.353-28.32-54.314-30.04-104.955-80.87-122.073-141.62-10.979 3.32-20.362 2.02-31.466-.37-36.897-8.09-69.112-30.41-89.655-62.11-19.101-29.88-19.141-58.95-11.726-92.22-62.05-25.77-107.39-76.69-88.242-146.71-19.67-14.449-28.1-22.391-44.741-40.041-37.914-1.602-97.029-22.761-130.956-39.673C193.071 876.005 111.35 780.902 73.4131 666.169 60.0767 626.495 40.66 549.012 51.8606 506.958c4.5347-17.026 72.0344-18.884 89.7374-22.05 33.884-6.058 63.938-15.733 96.489-27.311 72.87-25.919 175.91-40.292 247.298-3.895 46.826-36.263 79.43-52.575 138.573-63.328"/>
  <path fill="url(#a)" d="M1682.54 1532.15c2.67 6.92 6.26 5.88 10.28 10.9 17.24 21.48 20.07 29.94 45.2 41.55 7.21 1.52 13.24 7.76 19.73 9.44-5.4 17.04-8.48 26.81-18.6 42.09 11.67-6.59 20.97-15.5 30.87-24.46 10.11-10.39 12.15-19.76 15.39-33.23.47-1.61.61-3.62 1.74-3.85 10.74-2.17 43.34 12.21 51.96 16.27 14.67 6.92 33.91 18.96 44.22 29.59 2.86 4.01 2.31 1.9 2.26 6.39-2.05 4.35-4.59 6.45-7.94 9.9-7.73 7.55-11.53 10.37-20.14 16.8-3.69 3.27-6.1 5.92-9.38 9.51-7.42 10.4 2.8 9.27 2.47 18.22-1.25 2.07-1.58 2.78-3.19 4.54 16.73 9.49 50.93 17.71 66.83 26.8 18.51 6.49 47.88 12.64 67.69 17.5-32.46 21.98-66.92 28.86-104.74 32.68 10.63 8.23 25.68 13.78 32.4 19.54-1.92 9.51-26.71 13.86-35.61 16.89-39.12 13.35-69.4 18.58-110.55 12.62 7.9 22.96 9.68 14.05 22.21 30.1-8.38.03-40.18-1.35-45.13 1.59-3.78 8.08 8.86 25.66 11.88 35.07-15.59-2.32-60.24-15.62-71.74-26.17l-1.61 1.07c-1.28-.69-2.09-.93-3.45-1.44l-2.74 1.5c.59 2.64 7.26 40.98 7.12 42.34 2.01 1.56 8.2 5.61 8.65 7.14l-1.3.87-1.67 1.27 2.7 2.29c1.3 8.43 8.05 8.87 4.59 17.43l-1.89-1.19c-1.67 4.98 8.27 17.99 11.39 22.44l8.32 13.11 4.56 7.77c-14.84 24.44-30.64 50.25-44.96 74.92-1.98 2.65-2.22 2.93-3.71 6.05h-306.99c-4.1-4.1-7.61-7.63-12.31-11.07-4.6-3.35-9.48-6.29-14.59-8.79-9.19-4.43-64.33-26.47-71.79-25.29-2.94-4.02-3.65-4.92-7.43-8.15 1.03-.77 1.43-1.38 2.29-2.35-.38-15.9-26.44-38.5-35.76-54.86l6.02-11.16c-8.86-9.66-28.37-21.37-34.44-31.47-12.2-20.31-10.1-58.99-25.92-79.28-22.61-25.16-36.95-20.31-51.09-55.05-13.05-32.05 13.74-84.98 48.33-85.84 55.05-1.37 30.16-14.83 43.09-59.87 2.12-7.38 10.62-16.26 13.19-22.84 2.63-2.35 3.66-2.91 6.6-4.67 1.69 2.64-.79 11.66-1.39 15.97-2.82 20.21-3.65 40.66-2.48 61.03 1.06 21.85 5.19 45.01 13.81 65.19 5.86 13.72 6.86 26.78 6.55 41.55-.47 22.64 2.93 38.13 11.89 58.66-10.7-.35-33.06-3.96-41.34 3.18-6.5 5.6-6.7 15.87-6.96 23.78-.34 10.07-1.85 27.6 5.11 35.64 11.1 12.81 55.18 14.26 71.81 14.55 19.18.34 90.62.18 103.4-11.15 4.81-4.26 6.3-11.45 6.4-17.57.21-11.83-2.12-27.59-10.81-36.16-14.15-13.96-56.42-11.99-76.2-11.95-2.98-5.25-9.31-17.31-7.17-24.36.28-.44.56-.89.83-1.33 14.49-4.1 28.79-8.33 42.94-13.51 5.3-1.94 12.61-4.97 17.98-6.21 47.84-16.28 119.5-53.54 162.43-79.21 2.89-2.91 9.22-6.93 12.78-9.3 30.63-20.43 56.74-44.06 82.14-70.66 15.28-15.34 24.29-27.36 36.87-44.51 8.41-11.31 22.49-36.13 28.1-48.79"/>
  <path fill="#ac9b49" d="M1914.24 1712.61c18.51 6.49 47.88 12.64 67.69 17.5-32.46 21.98-66.92 28.86-104.74 32.68 10.63 8.23 25.68 13.78 32.4 19.54-1.92 9.51-26.71 13.86-35.61 16.89-39.12 13.35-69.4 18.58-110.55 12.62 7.9 22.96 9.68 14.05 22.21 30.1-8.38.03-40.18-1.35-45.13 1.59-3.78 8.08 8.86 25.66 11.88 35.07-15.59-2.32-60.24-15.62-71.74-26.17l-1.99-3.13c18.18-1.02 29.09-2.72 45.73-10.48 2.81-1.04 13.88-5.11 14.66-8.46 4.27-18.42-36.24-26.38-44.43-30.54l-.26-1.08c4.03-3.78 30.83-4.14 37.95-4.74 27.59-2.35 55.6 3.82 83.26 5.86-23.88-30.97-48.15-24.91-82.81-36.03-4.38-1.4-11.86-4.57-13.9-8.87 4.02-10.38 42.27-4.87 53.25-5.86 17.57-1.58 63.92 1.94 78.58-5.29 2.23-4.23-.53-3.36.75-8.43 8.29-.11 20.32 2.8 29.55 3.18 20.26.84 39.56.09 59.74-1.17-8-9.23-11.76-14.63-23.6-18.48.89-1.46.44-.57 1.17-2.76-1.91-1.21-2.63-1.8-4.06-3.54"/>
  <path fill="#817133" d="m1710.76 1959.26 4.56 7.77c-14.84 24.44-30.64 50.25-44.96 74.92-1.98 2.65-2.22 2.93-3.71 6.05h-206.92c4.19-2.52 16.76-7.56 21.66-9.65 26.21-11.16 57.24-21.13 78.89-40.37 12.33-6.58 26.86-25.96 34.36-37.28 3.41 5.33 6.29 10.74 11.61 14 5.75 3.82 9.68 5.22 16.05 7.82 6.6 3.54 13.39 7.5 20.48 9.78 10.03-2.56 28.38-10.33 37.96-15.2 2.88-1.47 11.11-9.23 14.11-10.41 7.6-2.98 9.98-.35 15.91-7.43m74.65-380.82c.47-1.61.61-3.62 1.74-3.85 10.74-2.17 43.34 12.21 51.96 16.27 14.67 6.92 33.91 18.96 44.22 29.59-40.98 5.25-51.28.61-89.85-.59 4.07-6.05 5.99-6.77 11.35-11.32 2.35-2 5.74-6.73 5.16-9.95-1.63-9.1-15.84-12.51-21.99-18.24-1.8-1.67-.24-.62-2.59-1.91m-155.43 307c6.4 2.15 19.25 9.15 23.03 8.94l-3.19-3.17 1.28-.47c6.94 1.92 29.65 10.16 34.55 14.44l2.7 2.29c1.3 8.43 8.05 8.87 4.59 17.43l-1.89-1.19c-1.67 4.98 8.27 17.99 11.39 22.44-2.74 2.16-1.27 1.62-4.4 2.1-15.04-5.81-28.18-11.7-42.41-19.12-19.49-10.17-23.69-22.6-25.65-43.69"/>
  <path fill="#fedd8e" d="m1522.65 1705.41.28 1.42c-8.36 5.76-17.03 11.06-25.96 15.88-10.98 5.8-38.11 14.88-34.38 30.13 5.77-1.54 9.9-3.63 15.3-6.1l.5.48c-6.5 7.68-9.84 4.73-16.94 9.42-6.08 4.02-10.84 12.42-18.4 15.77-6.15 2.72-11.95 2.96-17.88 6.1l.34.99c18.09 2.37 37.4-14.1 41.46-11.95-12.59 5.96-19.55 9.62-32.78 12.92-6.37 1.59-55.25 14.05-56.42 14.94 2.76-2.18 23.94-7.5 28.58-8.98l-.26-1.56c-7.29-1.95-13.34-7.2-20.69-7.24-6.16-.04-19.97 9.82-25.18 6.99 47.84-16.28 119.5-53.54 162.43-79.21"/>
  <path fill="#817133" d="M1811.2 1680.99c9.55-10.38 52-42.61 64.45-46.49l2 2.24c-7.73 7.55-11.53 10.37-20.14 16.8-3.69 3.27-6.1 5.92-9.38 9.51-7.42 10.4 2.8 9.27 2.47 18.22-1.25 2.07-1.58 2.78-3.19 4.54l-2.53 2.85c-7.17-1.59-13.85-3.2-21.15-4.1z"/>
  <path fill="#9d873e" d="M1847.41 1685.81c16.73 9.49 50.93 17.71 66.83 26.8 1.43 1.74 2.15 2.33 4.06 3.54-.73 2.19-.28 1.3-1.17 2.76-25.52-6.77-50.8-14.39-75.81-22.86l-1.63-2.7c1.96-2.66 2.11-1.88 6.44-2.81l-1.25-1.88z"/>
  <path fill="#ac9b49" d="M1738.02 1584.6c7.21 1.52 13.24 7.76 19.73 9.44-5.4 17.04-8.48 26.81-18.6 42.09 11.67-6.59 20.97-15.5 30.87-24.46 2.05 24.87-15.91 23.51-33.5 31.81-10.42 4.92-20.45 14.93-31.29 19.27 6.13-7.58 12.61-9.61 19.19-12.77 12.88-6.18 25.14-35.08 29.1-48.46.16-.55 1.2-5.74 1.05-5.92-3.27-4.09-14.01-6.8-16.55-11m-83.58-3.66c2.68-.19 3.08-.21 5.32-1.7l.88 1.57c-3.3 9.16-34.1 47.54-42.23 49.41-.28-1.55-.62-3.21-.84-4.77 15.28-15.34 24.29-27.36 36.87-44.51"/>
  <path fill="#9d873e" d="M1560.28 1997.98c4.84-7.86 11.52-10.61 17.22-16.9 4.33-4.78 15.95-23.9 21.34-26 4.57 3.17 6.74 4.4 10.26 8.87-.92 3.32-2.2 7.44-2.85 10.75-5.32-3.26-8.2-8.67-11.61-14-7.5 11.32-22.03 30.7-34.36 37.28"/>
  <path fill="#ac9b49" d="M1609.1 1963.95c3.44 4.67 10.63 13.92 13.2 18.57-6.37-2.6-10.3-4-16.05-7.82.65-3.31 1.93-7.43 2.85-10.75m214.63-279.39c7.3.9 13.98 2.51 21.15 4.1l1.25 1.88c-4.33.93-4.48.15-6.44 2.81l1.63 2.7c-3.9-1.03-11.64-4.48-15.1-6.42 4.02-.57 3.59.11 6.22-2.1-3.96-.42-4.14-.58-7.79-2.48z"/>
  <path fill="#817133" d="M1687.32 1903.91c-2.97-.08-12.87-7.96-13.98-11 2.61-.08 4.34 1.51 6.63 2.99 2.01 1.56 8.2 5.61 8.65 7.14z"/>
  <path fill="#644f2a" d="M1672.85 1853.56c.41-3.59-.41-2.33 1.57-4.56l4.24.3 1.99 3.13-1.61 1.07c-1.28-.69-2.09-.93-3.45-1.44z"/>
  <path fill="url(#b)" d="M1085.51 1662.1c18.07-69.08 93.98-104.88 159.03-114.12-6.97 12.01-14.12 23.92-21.44 35.72l2.75 3.61c-2.94 1.76-3.97 2.32-6.6 4.67-2.57 6.58-11.07 15.46-13.19 22.84-12.93 45.04 11.96 58.5-43.09 59.87-34.59.86-61.38 53.79-48.33 85.84 14.14 34.74 28.48 29.89 51.09 55.05 15.82 20.29 13.72 58.97 25.92 79.28 6.07 10.1 25.58 21.81 34.44 31.47l-6.02 11.16c9.32 16.36 35.38 38.96 35.76 54.86-.86.97-1.26 1.58-2.29 2.35 3.78 3.23 4.49 4.13 7.43 8.15 7.46-1.18 62.6 20.86 71.79 25.29 5.11 2.5 9.99 5.44 14.59 8.79 4.7 3.44 8.21 6.97 12.31 11.07H1136.8c-8.27-53.86-9.62-93.84-3.28-147.92 16.28 13.24 33.58 22.27 54.21 27.03-28.22-15.73-60.65-56.7-79.8-83.03 6.59 15.44 10.29 25.51 15.12 41.31-9-9.22-64.85-50.88-66.76-56.08.26-5.75 3.11-8.27 6.94-12.48 4.32-5.06 8.61-10.46 12.83-15.64-5.35-1.78-27.11-.79-34.47-1.44-15.13-1.35-29.67-3.05-44.343-7.3 18.733-24.83 53.673-41.23 72.903-59.74-16.21-2.75-24.41-5.58-39.98-10.71 19.03-17.12 43.18-26.75 66.34-47.21-3.23-5.09-6.81-8.43-11-12.69"/>
  <path fill="#0b0502" d="M1169.87 1943.52c.9-3.17 1.74-7.21 2.53-10.48 13.1 24.66 56.75 47.88 81.14 61.66 3.78 3.23 4.49 4.13 7.43 8.15-18.02 6.87-57.54-20.11-70.51-31.39-10.49-9.12-16.12-14.77-20.59-27.94"/>
  <path fill="#9d873e" d="M1076.06 1801.19c16.61-1.84 21.78-1.81 38.3-6.33-6.69 5.62-34.03 24.1-41.84 23.83-4.84-2.51-4.22-3.15-9.29-1.86 4.32-5.06 8.61-10.46 12.83-15.64"/>
  <path fill="#0b0502" d="M1219.25 1591.98c1.11-3.8 1.84-4.79 3.85-8.28l2.75 3.61c-2.94 1.76-3.97 2.32-6.6 4.67"/>
  <path fill="#644f2a" d="M1049.58 1772.08c13.06-1.06 8.89 3.39 20.33 4.66 1.73.2 1.57-.78 4.29.75l.31 1.87c-3.48 4.7-14.76 7.66-20.46 9.59-3.8 1.49-8.95 2.44-13.03 3.34-2.25-.97-4.23-2.03-6.39-3.17-2.06-3.29-1.66-1.57-1.36-5.33 3.5-5.75 10.34-8.61 16.31-11.71"/>
  <path fill="#9d873e" d="M1279.9 2022.16c4.75-.41 6.56-.9 11.04.32l.1.96-2.33.64c-3.73 1.05-7.05 2.15-10.81.87l-.05-1.28z"/>
  <path fill="#f3701f" d="M1803.1 1893.82c10.06-14.83 43.65-24.99 61.17-27.09 2.66-.32 9.87 1.12 12.81 1.67 3.91 9.17 5.04 18.61 7.61 28.1 1.94 7.17 5.09 15.62 7.84 22.57 17.21 43.53 36.63 86.22 55.68 128.93H1816.7c-3.25-9.34-6.35-21.78-9.71-33.06-5.39-19.89-17.48-41.95-19.15-62.28-1.38-16.88 30.99-7.13 38.04-5.42-10.64-15.25-18.55-35.37-22.78-53.42"/>
  <path fill="#fd912c" d="M1832.45 1975.25c11.76-1.66 20.43-1.85 30.7 5.97 17.09 13.01 25.88 46.36 30.36 66.78h-17.23c-8.97-10.26-39.44-59.37-43.83-72.75"/>
  <path fill="url(#c)" d="M1906.67 1818.29c13.95 27.23 25.49 63.05 34.45 92.09 11.88 38.53 24.16 81.42 31.89 120.99 1.71 7.06 3.02 9.97 5.86 16.63h-30.66c-19.05-42.71-38.47-85.4-55.68-128.93-2.75-6.95-5.9-15.4-7.84-22.57-2.57-9.49-3.7-18.93-7.61-28.1-2.94-.55-10.15-1.99-12.81-1.67-17.52 2.1-51.11 12.26-61.17 27.09 4.23 18.05 12.14 38.17 22.78 53.42-7.05-1.71-39.42-11.46-38.04 5.42 1.67 20.33 13.76 42.39 19.15 62.28 3.36 11.28 6.46 23.72 9.71 33.06h-24.14c-4.19-34.71-13.6-70.12-28.54-101.75-7.2-15.23-16.12-29.78-22.8-45.27 8.99 2.3 39.48 12.65 45.34 5.76.94-6.44-11.98-32.33-15.5-40.77 13.98.28 54.77 2.72 64.05-8.46 2.08-6.36-1.25-11.23-4.09-17.27 36.36-3.35 44.56-4.94 75.65-21.95"/>
  <path fill="#cd571f" d="M1877.08 1868.4c45.14 18.53 62.33 98.1 76.17 138.94 3.55 10.48 4.57 28.13 19.76 24.03 1.71 7.06 3.02 9.97 5.86 16.63h-30.66c-19.05-42.71-38.47-85.4-55.68-128.93-2.75-6.95-5.9-15.4-7.84-22.57-2.57-9.49-3.7-18.93-7.61-28.1"/>
  <path fill="#7c281b" d="M1088.36 1898.21c6.32 6.12 9.66 8.79 16.79 14.02-3.01 45.26-1.85 90.71 3.48 135.77H961.452c14.4-21.37 36.258-47.68 52.898-67.56q21.93-25.755 44.37-51.06c7.48-8.43 21.26-24.36 29.64-31.17"/>
  <path fill="#a63b1a" d="M1014.35 1980.44c10.08 9.65 28.21 11.12 40.08 17.03 18.45 9.17 24.98 32.15 30.37 50.53H961.452c14.4-21.37 36.258-47.68 52.898-67.56"/>
  <path fill="#50401d" d="M1688.35 1907.47c13.16 9.32 19.72 17.47 30.63 29.38l3.24-1.15c2.88 4.3 6.2 8.9 8.42 13.52 11.08 15.76 32.23 79.64 36.28 98.78h-100.27c1.49-3.12 1.73-3.4 3.71-6.05 14.32-24.67 30.12-50.48 44.96-74.92l-4.56-7.77-8.32-13.11c-3.12-4.45-13.06-17.46-11.39-22.44l1.89 1.19c3.46-8.56-3.29-9-4.59-17.43"/>
  <path fill="#5f1c0d" d="M1702.44 1946.15c-3.12-4.45-13.06-17.46-11.39-22.44l1.89 1.19c4.61 6.5 8.35 7.63 12.6 12.54 5.85 2.54 23.58 20.88 20.76 29.58-.13.4-2.35 3.01-2.55 3.24l-.73 1.23c-2.53-1.55-5.1-3.04-7.7-4.46l-4.56-7.77z"/>
  <path fill="#0b0502" d="M1702.44 1946.15c-3.12-4.45-13.06-17.46-11.39-22.44l1.89 1.19c4.61 6.5 8.35 7.63 12.6 12.54-2.25-1.37-1.75-1.22-4.2-2.03.77 6.02 17.59 29.7 22.41 34.85l-.73 1.23c-2.53-1.55-5.1-3.04-7.7-4.46l-4.56-7.77z"/>
  <path fill="#644f2a" d="m1670.36 2041.95.56 2.79c7.72 2.59 5.61-.76 10.11-3.19 3.62-1.96 8.02-2.19 12.99-4.64 3.13.72 4.79.18 7.84.51-3.06 2.99-5.15 3.88-5.5 7.35l1.42 3.23h-31.13c1.49-3.12 1.73-3.4 3.71-6.05"/>
  <path fill="#9d873e" d="M1722.22 1935.7c2.88 4.3 6.2 8.9 8.42 13.52l-.87.67c-3.6-4.16-7.27-8.76-10.79-13.04z"/>
  <path fill="#817133" d="M1682.54 1532.15c8-9.22 65.89 25.39 73.02 33.2 3.21 3.52 4.74 6.67 6.39 10.98-1.57 6.03-3.04 11.58-4.2 17.71-6.49-1.68-12.52-7.92-19.73-9.44-25.13-11.61-27.96-20.07-45.2-41.55-4.02-5.02-7.61-3.98-10.28-10.9"/>
  <path fill="url(#d)" d="m1672.85 1853.56 2.74-1.5c1.36.51 2.17.75 3.45 1.44 4.42 16.26 16.69 33.83 24.82 48.67 6.23 11.36 11.2 22.71 18.36 33.53l-3.24 1.15c-10.91-11.91-17.47-20.06-30.63-29.38l-2.7-2.29 1.67-1.27 1.3-.87c-.45-1.53-6.64-5.58-8.65-7.14.14-1.36-6.53-39.7-7.12-42.34"/>
  <path fill="#0b0502" d="M1245.12 215.421c6.79 1.301 11.22 2.683 17.85 4.767l-4.61 1.976c-4.85-.504-9.76-1.441-13.57-4.714z"/>
  <path fill="#50401d" d="m1857.51 1653.54 2.34 1.65c-3.69 3.02-6.93 5.38-9.36 9.58l-2.36-1.72c3.28-3.59 5.69-6.24 9.38-9.51"/>
  <path fill="#644f2a" d="m1859.85 1655.19.84.04c-1.95 3.21-5.82 9.08-9.45 10.31l-.75-.77c2.43-4.2 5.67-6.56 9.36-9.58"/>
  <path fill="#f3701f" d="M657.755 399.333c27.954-27.685 85.439-54.609 122.924-68.257 12.182-4.436 34.072-9.511 44.081-14.164 14.24-6.621 30.68-21.776 46.137-30.27 64.56-35.479 134.663-63.747 209.143-64.742 122.33-1.635 254.09 38.352 343.17 124.36 6.95 4.552 18.7 17.684 24.49 24.662 45.66 55.067 73.98 118.254 88.94 187.557-7.19 6.835-31.54 24.649-33.51 32.329-.14.536-.31 1.062-.45 1.595-.1.369-.2.741-.29 1.112-7.12-.588-14.75-2.583-21.98-3.883-24.14-4.342-50.91-5.538-74.67 2.15 58.56 3.211 122.08 21.903 161.74 67.036 35.77 40.705 48.12 80.832 60.84 131.465 14.44 58.139 17.9 100.48-4.94 157.146 7.27 44.884 3.82 54.631-6.1 98.061-6.22 27.18-1.23 53.93-23.31 78.7-44.37 59.39-108.28 111.82-182.97 123.78-2.18.34-4.36.62-6.56.83-4.35 38.51-22.83 62.62-52.44 86.58-7.29 5.9-27.57 19.43-36.6 23.2-7.98-4.83-33.4-18.31-37.46-24.41 8.23-2.56 17.08-3.33 25.37-6.78 57.64-24.02 93.91-62.43 82.97-126.84 17.12-2.61 33.44-9.02 49.77-14.76l-.3-1.92c-3.34 1.1-4.42 1.53-8.01 1.96-3.77-1.19-4.15-1.94-6.83-4.74-1.23-4.87-1.25-16.39-.47-21.41l.72-.83c-13.05 3.3-35.72 6.91-48.69 4.24-10.04-.18-17.55-.6-27.54-1.59-1.67-.55-21.1-4.17-24.07-4.81-2.11-1.19-14.57-4.33-17.8-5.3-8.62-2.59-17.12-5.56-25.48-8.9-36.74-14.48-58.75-29.45-90.73-51.61-4 3.96-4.57 5.08-4.31 10.73 3.89 3.92 21.61 14.51 27.5 17.52l-1.62 1.54c-11.52-7.03-18.84-9.34-32.15-9.76-31.52-1.01-37.45 26.85-37.07 52-107.2-38.86-288.043-132.87-397.867-86.63-17.074-26.74-29.842-41.05-61.174-48-44.449 7.05-51.058 48.72-44.224 86 1.425 7.77 5.357 21.04-5.417 20.98-9.521-.86-21.672-.87-30.202-2.88-47.995-11.27-106.844-54.13-91.234-110.57 1.109-4 1.774-10.93 5.387-13.3l3.165 1.18c3.258-2.38 4.462-4.16 8.175-6.39-12.949-9.309-25.056-16.686-37.355-27.065-95.848-80.882-143.76-230.283-94.384-348.654 4.851-11.63 9.832-23.663 16.418-34.508 5.428-18.199 52.766-83.024 69.483-95.435 40.628-44.483 83.886-66.361 141.845-78.328 11.323-1.846 22.125-3.147 33.6-3.329 10.567-1.445 44.186 1.122 60.992.484-16.411-8.701-40.332-13.749-58.653-17.132"/>
  <path fill="#fec762" d="M1010.6 370.377c-16.974-19.672-60.913-31.858-78.732-51.843-8.953-10.042-.768-28.892 8.435-36.204 27.88-22.152 67.637-34.396 101.907-42.428 13.47-2.904 41.78-3.822 55.83-3.246 85.67 4.387 178.63 38.499 240.33 99.223 16.08 15.832 31.81 49.825 30.05 71.954-4.69 58.725-86.43 70.329-131.71 78.224-12.58 2.196-25.38 5.085-37.27 6.709l-4.17.438c2.4 2.978 7.15 2.823 11.92 4.997 255.17 62.795-76.43 160.969-99.96 229.391l.67 1.873c4.29.734 6.81-1.336 10.53-3.594-8.77 21.278-18.05 42.526-24.65 64.595-11.32 37.846-17.94 75.247-22.89 114.334-29.08-68.178-73.231-84.191-145.096-79.663 1.674-7.486 3.529-17.199 3.057-24.858.38-7.849.202-14.635-.012-22.508 1.046-15.259-6.454-48.297-9.337-64.52-8.026-45.168-19.294-122.333-53.62-154.504-5.813-7.605-12.542-14.395-19.727-20.696-13.414-19.054-81.824-54.595-105.687-63.298-57.822-21.089-141.055-29.954-199.817-7.926-19.74 7.4-39.648 21.289-60.68 30.811 40.628-44.483 83.886-66.361 141.845-78.328l2.97 1.215 1.513 3.719c9.712.614 21.559-.206 31.528-.351 8.252-.12 20.61.489 28.443-.134 51.799.187 119.318 23.497 165.788 47.151 17.07 8.689 30.277 22.303 48.362 27.793-16.744-32.447-90.338-70.085-123.275-85.404-6.593-3.067-41.781-13.618-43.488-17.341-.667-1.454.045-5.916.527-7.46 2.929-9.375 13.694-15.607 22.095-19.63 39.755-19.04 90.514-34.555 134.727-29.005 22.902 2.875 46.974 10.653 69.289 16.77 16.742 4.589 33.148 10.842 50.305 13.744"/>
  <path fill="#fedd8e" d="M1060.41 488.818c-36.83-8.14-70.118-23.918-98.222-49.295-7.687-6.942-14.603-21.01-8.111-30.13 9.289-13.048 35.376-21.694 51.653-25.593 57.66-13.245 124.48-11.992 177.87 15.887 29.69 15.506 54.75 51.84 25.76 81.753-3.79 3.909-7.36 6.385-9.92 11.326l-4.17.438c2.4 2.978 7.15 2.823 11.92 4.997-3.36.139-5.07.175-8.4-.095l.2.992c.73 3.654.89 4.034.54 7.633 3.75 11.537 6.28 19.506-1.68 30.095-7.57 10.088-25.13 15.115-37.24 16.602-31.53 3.647-68.07-2.188-94.17-21.224-18.8-13.706-20.27-26.301-6.03-43.386"/>
  <path fill="#fea33a" d="M1199.53 506.731c-5.6-8.369-5.22-5.795-12.72-11.984 1.85-1.515 5.6-1.301 8.46-1.543 2.4 2.978 7.15 2.823 11.92 4.997-3.36.139-5.07.175-8.4-.095l.2.992c.73 3.654.89 4.034.54 7.633"/>
  <path fill="#fee093" d="M967.656 504.172c45.474-3.073 79.214 53.912 27.683 67.828-24.458.315-42.577-7.619-53.994-30.141.543-21.282 4.272-31.243 26.311-37.687"/>
  <path fill="url(#e)" d="M710.015 961.3c18.359-8.162 42.872-15.47 62.182-21.467 10.479-3.254 26.351-5.103 36.341-9.287 21.844-9.149 43.969-26.731 64.075-37.985 31.305-17.523 74.126-29.888 108.91-15.662 27.007 11.045 44.407 28.779 56.207 55.401 3.3 7.459 9.66 29.756 7.61 36.689-2.29-1.97-1.51-1.169-2.98-4.012l-.12-.745c-4.43-3-5.96-5.286-8.05-10.023l-1.74 4.01.62 5.606c3.42 25.934 7.99 36.375-11.43 58.045.73 1.44 1.07 2.51 2.12 3.56 30.56-1.95 54.62 5.63 81.14 19.78 3.96 2.11 18.07 9.58 20.78 10.51 16.37 14.88 38.43 33.78 56.86 45.89 3.89 3.92 21.61 14.51 27.5 17.52l-1.62 1.54c-11.52-7.03-18.84-9.34-32.15-9.76-31.52-1.01-37.45 26.85-37.07 52-107.2-38.86-288.043-132.87-397.867-86.63-17.074-26.74-29.842-41.05-61.174-48-.847-.26-4.076-.41-5.418-.66 1.086-12.31 31.613-35.544 42.724-41.107 5.811-2.91 13.639-3.756 16.852-6.804.131-1.623.532-2.02-.493-3.146-5.435-5.973-20.287-10.438-28.144-11.861-2.068-.375-1.415.342-4.12-.957 1.762-.805 6.349-1.887 8.455-2.445"/>
  <path fill="#120603" d="M952.589 927.525c42.663-25.512 59.401 37.878 37.62 70.631-20.579 38.734-96.141 33.504-70.764-42.968 6.219-13.202 13.514-22.24 25.132-30.837l.439 1.578-2.298 2.41.238 1.41 2.265.651c1.721-2.089 1.14-.92 1.315-3.749 2.612.21 3.514.291 6.053.874"/>
  <path fill="#cd571f" d="m944.577 924.351.439 1.578-2.298 2.41.238 1.41 2.265.651c1.721-2.089 1.14-.92 1.315-3.749 2.612.21 3.514.291 6.053.874-22.762 19.867-49.058 67.971-5.951 80.695 33.927-7.16 26.2-40.002 37.261-47.458 8.235 5.557 6.096 29.417 6.31 37.394-20.579 38.734-96.141 33.504-70.764-42.968 6.219-13.202 13.514-22.24 25.132-30.837"/>
  <path fill="#fedd8e" d="M914.857 929.695c-2.938-8.572-6.363-19.66-14.092-25.758-2.568-2.025-7.407-1.325-10.004-5.032l-.07-1.382c3.311.015 3.179.417 6.329 1.983 11.042-15.481 8.194-17.338 29.601-21.528 25.706-5.031 52.375.463 73.939 15.399 6.86 4.75 12.66 10.895 18.75 16.643-6.16-7.966-9.36-10.368-15.3-17.133 18.84 11.934 32.5 35.312 37.3 56.728 1 4.512 1.77 9.07 2.31 13.658l-1.26 1.704-.12-.745c-.17-.39-.35-.78-.53-1.17-8.43-11.649-9.1-29.737-21.86-38.728-16.32-11.487-44.425-17.516-63.028-9.755-2.349 1.704-11.24 7.743-12.245 9.772-11.618 8.597-18.913 17.635-25.132 30.837-1.182-4.483 3.233-7.32 2.831-10.054-.308-2.094-6.431-7.07-7.419-15.439"/>
  <path fill="#fec762" d="M942.963 919.158c.364-.186.728-.373 1.091-.559l1.795-.879c5.009-2.504 5.277-2.928 10.973-3.141-2.349 1.704-11.24 7.743-12.245 9.772-11.618 8.597-18.913 17.635-25.132 30.837-1.182-4.483 3.233-7.32 2.831-10.054-.308-2.094-6.431-7.07-7.419-15.439 1.365 2.833 2.498 6.441 5.052 7.731 2.523-1.522 2.507-2.247 3.774-4.941a710 710 0 0 1 19.28-13.327"/>
  <path fill="#fee093" d="m923.683 932.485-.222-1.719c3.52-2.259 6.564-4.854 9.819-7.477-4.505.432-5.421 1.409-8.589-.445l-.107-2.537 2.912-1.965 1.695 1.962 1.925-.151c1.182-2.284.604-1.219 1.733-3.21 5.663 1.811-.911 2.049 4.551 4.518 1.059-2.255.558-1.562 2.581-3.262l2.982.959a710 710 0 0 0-19.28 13.327"/>
  <path fill="#fd912c" d="M1033.07 963.825c3.42 25.934 7.99 36.375-11.43 58.045-1.97 1.57-1.87 1.5-4.24 2.35-1.04-4.57 6.79-10.86 3.99-17.05 3.83-17.142 11.39-18.93 11.68-43.345"/>
  <path fill="#f67d28" d="M1021.39 1007.17c2.8 6.19-5.03 12.48-3.99 17.05 2.37-.85 2.27-.78 4.24-2.35.73 1.44 1.07 2.51 2.12 3.56-2.13.58-9.33.71-11.93.83 3.89-7 6.55-11.72 9.56-19.09"/>
  <path fill="#fd912c" d="m1032.45 958.219-3.42-19.318c2 4.851 4.65 10.218 5.16 15.308z"/>
  <path fill="#120603" d="M838.043 961.451c13.61-49.448 54.599-56.337 54.187 2.243 9.394 46.116-67.9 49.806-54.187-2.243"/>
  <path fill="#cd571f" d="M838.043 961.451c6.824 13.792 5.809 18.249 20.123 26.422 20.037.942 26.277-5.776 34.064-24.179 9.394 46.116-67.9 49.806-54.187-2.243"/>
  <path fill="#fedd8e" d="M810.426 935.71c4.101.646 12.274 1.488 15.063 4.261 10.166 10.108-9.718 27.622-16.641 33.455-5.331 3.074-9.95 5.142-14.977.662-5.093-11.972 6.044-31.641 16.555-38.378"/>
  <path fill="#a63b1a" d="M1423.21 346.26c6.95 4.552 18.7 17.684 24.49 24.662 45.66 55.067 73.98 118.254 88.94 187.557-7.19 6.835-31.54 24.649-33.51 32.329-.14.536-.31 1.062-.45 1.595-.1.369-.2.741-.29 1.112-7.12-.588-14.75-2.583-21.98-3.883-24.14-4.342-50.91-5.538-74.67 2.15-23.81 1.328-49.07 1.223-71.79 9.922-7.17-3.276-4.33-4.861-12.45-3.058 26.89-34.794 76.72-59.649 99.41-97.174 18.55-30.673 16.95-85.524 12.06-120.49-.84-6.04-7.69-27.01-9.76-34.722m187.09 626.871c3.45-9.275 8.24-17.089 13.08-25.702 7.27 44.884 3.82 54.631-6.1 98.061-6.22 27.18-1.23 53.93-23.31 78.7-44.37 59.39-108.28 111.82-182.97 123.78-2.18.34-4.36.62-6.56.83-4.35 38.51-22.83 62.62-52.44 86.58-7.29 5.9-27.57 19.43-36.6 23.2-7.98-4.83-33.4-18.31-37.46-24.41 8.23-2.56 17.08-3.33 25.37-6.78 57.64-24.02 93.91-62.43 82.97-126.84 17.12-2.61 33.44-9.02 49.77-14.76 11.19-1.71 39.74-19.41 49.75-26.49 47.36-33.51 90.07-82.02 114.37-134.9 8.26-17.97 15.56-33.585 14.31-53.331l-1.17-.804z"/>
  <path fill="#fea33a" d="M630.518 1135.26c-1.656-1.92-4.564-7-6.444-8.5-14.106-11.24-30.117-20.67-42.836-33.65-9.404-9.6-13.542-23.14-12.923-36.64.908-19.82 21.285-52.31 35.725-65.136 17.092-15.185 62.834-25.205 85.86-30.121 4.686-1 15.091-.275 20.115.087-2.106.558-6.693 1.64-8.455 2.445 2.705 1.299 2.052.582 4.12.957 7.857 1.423 22.709 5.888 28.144 11.861 1.025 1.126.624 1.523.493 3.146-3.213 3.048-11.041 3.894-16.852 6.804-11.111 5.563-41.638 28.797-42.724 41.107 1.342.25 4.571.4 5.418.66-44.449 7.05-51.058 48.72-44.224 86 1.425 7.77 5.357 21.04-5.417 20.98"/>
  <path fill="url(#f)" d="M1405.74 591.782c58.56 3.211 122.08 21.903 161.74 67.036 35.77 40.705 48.12 80.832 60.84 131.465-1.55 4.789-2.5 9.489-5.82 13.07-1.4.309-3.44.943-4.13-1.087-12.09-35.808-21.17-68.292-44.78-99.513-48.85-64.618-137.8-94.519-216.81-89.081-14.19.977-30.16 5.284-43.8 9.244-3.73-1.305-4.12-2.044-5.41-5.464.47-3.585 2.02-4.527 4.61-7.122 2.74-1.21 5.46-2.454 8.17-3.729.16-2.47 1.04-4.77 1.15-7.955 8.12-1.803 5.28-.218 12.45 3.058 22.72-8.699 47.98-8.594 71.79-9.922"/>
  <path fill="#cd571f" d="M1321.5 598.646c8.12-1.803 5.28-.218 12.45 3.058l-13.6 4.897c.16-2.47 1.04-4.77 1.15-7.955"/>
  <path fill="url(#g)" d="M410.488 593.073c.48 4.061-12.694 30.881-15.317 36.05l2.008 7.09-.161-.117 1.385-.285-1.949-.678 2.287-.444c1.898-7.888 4.176-18.985 8.673-25.597 1.002-1.474 1.49-4.631 1.827-6.475l.731-.084c-5.363 24.581-14.148 45.582-17.695 72.521-9.973 75.756 9.524 162.593 49.097 227.628 22.421 36.848 54.796 62.069 91.874 81.562 9.643 5.07 33.739 10.967 23.306 26.286-3.155 2-7.221 4.99-11.148 3.68-2.652-2.1-6.922-4.33-9.952-6.06l-9.645-4.85c-12.949-9.309-25.056-16.686-37.355-27.065-95.848-80.882-143.76-230.283-94.384-348.654 4.851-11.63 9.832-23.663 16.418-34.508"/>
  <path fill="#f67d28" d="M535.454 1008.15c8.302-.3 13.267-.88 21.1 2.38-3.155 2-7.221 4.99-11.148 3.68-2.652-2.1-6.922-4.33-9.952-6.06"/>
  <path fill="#5f1c0d" d="m1610.3 973.131 3.01-2.866 1.17.804c1.25 19.746-6.05 35.361-14.31 53.331-24.3 52.88-67.01 101.39-114.37 134.9-10.01 7.08-38.56 24.78-49.75 26.49l-.3-1.92c-3.34 1.1-4.42 1.53-8.01 1.96-3.77-1.19-4.15-1.94-6.83-4.74-1.23-4.87-1.25-16.39-.47-21.41l.72-.83c-13.05 3.3-35.72 6.91-48.69 4.24 22.19-1.44 45.04-3.29 66.09-10.71 59.88-21.12 113.41-58.06 142.01-116.39 10.44-21.27 19.03-41.99 29.73-62.859"/>
  <path fill="#7c281b" d="M1125.68 1055.72c.56-5.01 1.12-10.11 4.74-13.85 3.79 1.79 14.56 13.62 18.8 17.16 11.4 9.5 25.65 23.68 37.63 31.85-4 3.96-4.57 5.08-4.31 10.73-18.43-12.11-40.49-31.01-56.86-45.89"/>
  <path fill="#fea33a" d="M1312.98 622.916c-8.22 2.503-47.61 19.163-51.51 18.638 3.99-7.857 40.69-27.292 50.71-31.224-2.59 2.595-4.14 3.537-4.61 7.122 1.29 3.42 1.68 4.159 5.41 5.464"/>
  <path fill="#0b0502" d="M517.634 1009.69c3.258-2.38 4.462-4.16 8.175-6.39l9.645 4.85c3.03 1.73 7.3 3.96 9.952 6.06-9.388 4.6-19.301-.21-27.772-4.52"/>
  <path fill="#fea33a" d="M621.816 419.31c11.323-1.846 22.125-3.147 33.6-3.329-5.718 2.536-17.988 1.955-20.201 4.944 5.383 1.986 42.021 1.995 51.055 2.834-7.833.623-20.191.014-28.443.134-9.969.145-21.816.965-31.528.351l-1.513-3.719z"/>
  <path fill="#f3701f" d="M846.155 538.051c7.185 6.301 13.914 13.091 19.727 20.696-6.563-2.123-16.615-14.579-19.727-20.696"/>
  <path fill="#cd571f" d="M928.851 800.279c-2.818-4.907-3.16-17.613-.012-22.508.214 7.873.392 14.659.012 22.508"/>
  <path fill="#120603" d="M1353.89 642.204c136.51-6.381 252.3 99.191 258.53 235.705 6.22 136.511-99.48 252.181-236.01 258.251-136.29 6.06-251.74-99.44-257.95-235.73-6.21-136.291 99.15-251.855 235.43-258.226"/>
  <path fill="#dccdc6" d="M1354.23 658.815c124.26-6.718 230.43 88.596 237.1 212.858 6.66 124.263-88.69 230.387-212.96 237.007-124.19 6.62-230.25-88.67-236.91-212.866-6.66-124.192 88.58-230.284 212.77-236.999"/>
  <path fill="#fefbf0" d="M1349.71 686.416c.37-.056.73-.111 1.1-.166 44.13-2.821 85.49 6.943 121.05 33.796 36.8 27.791 56.69 68.307 63.41 113.149 8.14 54.287-8.29 99.574-40.82 143.009-32.17 42.966-77.65 71.176-131.32 78.476-41.51 4.55-88.86-5.36-121.27-32.16-134.15-110.952-57.8-318.163 107.85-336.104"/>
  <path fill="#120603" d="M1324.14 761.532c43.88-7.486 85.52 22.052 92.95 65.945s-22.16 85.491-66.06 92.87c-43.83 7.368-85.34-22.159-92.76-65.977s22.06-85.365 65.87-92.838"/>
  <path fill="#fefbf0" d="M1316.89 785.326c13.96-.533 26.26 6.822 29.9 20.7 2.26 8.336.94 17.236-3.65 24.554-6.74 10.821-15.08 14.151-26.62 16.637-15.73.266-29.81-6.894-32.33-23.651-1.24-8.591 1.02-17.321 6.28-24.223 7.17-9.515 15.31-12.485 26.42-14.017"/>
  <path fill="#120603" d="M611.591 474.872c132.021-15.339 251.5 79.203 266.924 211.214 15.424 132.012-79.041 251.551-211.042 267.06-132.122 15.523-251.794-79.046-267.232-211.178s79.208-251.743 211.35-267.096"/>
  <path fill="#dccdc6" d="M613.447 492.77c121.216-13.93 230.685 73.268 244.215 194.529 13.529 121.261-74.029 230.442-195.334 243.572-120.741 13.069-229.304-73.993-242.771-194.69-13.466-120.698 73.238-229.547 193.89-243.411"/>
  <path fill="#fefbf0" d="M617.112 513.329c100.253-5.556 185.917 71.453 191.03 171.729s-72.273 185.599-172.571 190.27c-99.673 4.642-184.35-72.158-189.432-171.81-5.081-99.653 71.344-184.668 170.973-190.189"/>
  <path fill="#120603" d="M569.052 610.715c43.795-5.865 84.051 24.886 89.912 68.682 5.86 43.796-24.894 84.049-68.69 89.906-43.791 5.856-84.038-24.894-89.898-68.684s24.886-84.04 68.676-89.904"/>
  <path fill="#fefbf0" d="M548.389 639.207c6.905-.812 12.695-.474 19.177 2.466a26.686 26.686 0 0 1 14.148 14.962c7.013 18.731-5.795 34.46-23.207 40.343-38.116 8.054-51.534-40.681-10.118-57.771"/>
  <path fill="#f3701f" d="M1507.95 596.616c8.24-3.845 18-10.033 26.23-14.571 78.31-43.204 167.64-35.426 253.75-39.809 31.47-1.602 62.99-2.201 94.49-2.678 22.74-.443 45.33-2.527 68.15-1.367 12.69.645 15.56 1.69 19.2 13.907 3.24 15.754 2.5 34.991 1.32 51.116-7.77 106.399-26.99 226.147-86.42 316.499-35.94 55.223-86.39 99.487-145.81 127.947-5.91 3.98-28.51 12.56-35.68 15.54-16.7 6.95-33.4 14.12-50.07 21.16 5.57-24.09 7.76-38.02 9.02-62.83-.01-19.55-.95-26.453-4.55-45.715 2.47-6.031 6.77-13.662 8.39-19.598 4.68-17.107 7.58-27.243 19.8-40.758 7.24-8.004 11.72-25.235 14.29-36.057 4.1-17.826 5.99-36.093 5.6-54.382-.73-24.209-3.26-35.017 4.36-58.518 10.91-33.653 19.24-68.586 27.94-102.862 2.71-10.67 4.89-22.024 9.09-32.193 28.24-27.316 125.6-52.233 164.34-52.175 19.17-3.603 31-6.112 49.72-12.769-9.9-9.27-20.36-10.613-34.5-9.682-64.08 4.218-165.07 30.371-212.14 74.308-25.27 23.578-36.07 103.415-43.12 137.282-1.73 8.313-3.59 25.694-6.62 33.06l-1.2-.11c-3.54-5.194-7.1-25.005-8.87-32.153-5.35-21.672-13.37-40.927-22.41-61.232-18.71-37.127-51.08-72.161-86.75-93.54-11.18-6.704-25.45-12.591-37.55-17.82"/>
  <path fill="#7c281b" d="M1747.05 631.447c28.24-27.316 125.6-52.233 164.34-52.175-17.53 21.24-12.93 51.563-17.3 75.844-5.16 28.617-13.73 79.28-27.83 103.345-12.01 4.229-62.05 25.888-70.23 31.907-.33 8.084-.7 18.393 1.15 26.251 3.62 17.616 9.27 49.582 5.85 66.951-4.29 21.768-23.33 52.191-32.87 72.518-5.89 12.537-34.74 82.532-31.3 91.572-5.91 3.98-28.51 12.56-35.68 15.54-16.7 6.95-33.4 14.12-50.07 21.16 5.57-24.09 7.76-38.02 9.02-62.83-.01-19.55-.95-26.453-4.55-45.715 2.47-6.031 6.77-13.662 8.39-19.598 4.68-17.107 7.58-27.243 19.8-40.758 7.24-8.004 11.72-25.235 14.29-36.057 4.1-17.826 5.99-36.093 5.6-54.382-.73-24.209-3.26-35.017 4.36-58.518 10.91-33.653 19.24-68.586 27.94-102.862 2.71-10.67 4.89-22.024 9.09-32.193"/>
  <path fill="#cd571f" d="M1797.18 816.619c3.62 17.616 9.27 49.582 5.85 66.951-4.29 21.768-23.33 52.191-32.87 72.518-5.89 12.537-34.74 82.532-31.3 91.572-5.91 3.98-28.51 12.56-35.68 15.54-16.7 6.95-33.4 14.12-50.07 21.16 5.57-24.09 7.76-38.02 9.02-62.83.91-5.09.93-11.85 1.03-17.15l1-.57c1.16 2.48.27 1.76 2.22 2.91 16.75-20.987 32.39-42.682 48.68-64.023 10.8-14.148 29.2-17.792 38.16-28.078 17.47-20.059 29.91-50.803 38.35-75.84 2.61-7.86 2.48-14.948 5.61-22.16"/>
  <path fill="#fec762" d="M1507.95 596.616c8.24-3.845 18-10.033 26.23-14.571 78.31-43.204 167.64-35.426 253.75-39.809 31.47-1.602 62.99-2.201 94.49-2.678 22.74-.443 45.33-2.527 68.15-1.367 12.69.645 15.56 1.69 19.2 13.907-.58.435-1.16.87-1.74 1.306-7.89-.935-18.37-2.279-26.03-2.606-9.76-.418-22.83-.117-32.5 1.046-59.05 7.1-118.04 20.557-170.22 50.098-14.98 8.479-27.55 15.917-38.64 29.131-23.62 28.13-15.45 79.746-34.95 107.829-2.95-5.272-9.26-18.967-11.8-22.251-2.72-.123-1.82-.229-4.34.47-4.67-3.675-9.41-7.701-14.65-10.456-2.18.773-1.35.242-2.65 1.311-18.71-37.127-51.08-72.161-86.75-93.54-11.18-6.704-25.45-12.591-37.55-17.82"/>
  <path fill="#f67d28" d="m1937.69 727.663 1.08 1.172c.03 7.523-2.11 23.656-3.38 31.045-3.07-1.613-8.04-3.212-11.42-4.425-15.82 10.287-23.94 7.653-41.87 5.958-1.57.084-3.75-1.122-5.9-1.488 8.56-3.075 11.95-2.08 20.27-3.662 21.1-4.019 28.82-13.61 41.22-28.6"/>
  <path fill="#f3701f" d="M1470.37 1272.99c14.86 52.2 27.59 92.66 48.35 143.03 1.56 3.52 8.59 18.33 8.83 20.67 30.73 57.48 39.57 85.78 101.34 120.54-4.12 7.06-14.07 24.85-19.32 30.08-40.69 62.32-131.08 120.11-196.72 150.78-26.92 12.58-63.77 26.76-91.82 37.63-24.64-59.54-48.91-139.07-42.08-204.46 5.28-7.84 12.52-16.39 18.16-24.4 10.75-15.26 15.43-26.57 21.63-43.58 5 9.47 11.49 25.82 15.55 35.94l1.93.23c6.75-9.2-10.63-58.78-15.88-70.5l-1.06-1.18c-12.07-19.41-22.75-32.32-38.47-48.63 28.3-10.39 50.46-23.28 74.91-40.55 21.23-16.65 38.64-33.78 51.94-57.69 5.02-9.05 9.2-19.75 13.95-28.25 15.99-8.02 32.83-9.8 48.76-19.66"/>
  <path fill="#5f1c0d" d="M1470.37 1272.99c14.86 52.2 27.59 92.66 48.35 143.03l-.9.24c-9.86 2.75-14.49 5.96-23.55 10.05-23.4-23.93-104.78-40.26-138.55-47.72 21.23-16.65 38.64-33.78 51.94-57.69 5.02-9.05 9.2-19.75 13.95-28.25 15.99-8.02 32.83-9.8 48.76-19.66"/>
  <path fill="#7c281b" d="M1280.81 1419.14c28.3-10.39 50.46-23.28 74.91-40.55 33.77 7.46 115.15 23.79 138.55 47.72 9.06-4.09 13.69-7.3 23.55-10.05l.9-.24c1.56 3.52 8.59 18.33 8.83 20.67l-1.57-.48c-2.92-5.84-5.7-11.76-8.33-17.75-9.33 1.44-13.16 4.75-21.39 9.3 2.84 5.8 8.67 18.42 9.93 24.44l-.62.96c-3.75-8.56-7.43-17.14-11.04-25.76-41.26 17.64-80.71 32.88-125.77 39.22-13.9 1.96-40.63-1.46-49.48 1.15-12.07-19.41-22.75-32.32-38.47-48.63"/>
  <path fill="#a63b1a" d="M1496.26 1427.76c8.23-4.55 12.06-7.86 21.39-9.3 2.63 5.99 5.41 11.91 8.33 17.75l1.57.48c30.73 57.48 39.57 85.78 101.34 120.54-4.12 7.06-14.07 24.85-19.32 30.08-2.94-1.14-7.06-.32-9.29-1.71-19.71-12.35-33.77-28.08-55.06-38.19-11.64-26.63-30.87-67.59-39.65-94.25l.62-.96c-1.26-6.02-7.09-18.64-9.93-24.44m-175.92 41.19c21.24 16.06 34.46 43.42 42.62 68.14 6.64 20.08 11.47 29.88 26.06 44.76-9.07.18-18.19.45-24.87 7.61-8.22 8.81-1.57 15.68 6.36 20.64 13.42 8.42 39.4 9.49 49.41 21.7 1.41 8.86-20.09 11.05-26.8 11.03-16.73-.23-38.88-1.94-52.84-11.61-5.04-3.48-1.31-17.81-2.37-24.29-2.15-13.16-12.89-57.33-3.62-67.71l1.93.23c6.75-9.2-10.63-58.78-15.88-70.5"/>
  <path fill="#f67d28" d="m1500.4 1618.05.48.26.1 1.09c-22.98 9.46-43.54 6.96-69.01 18.14-3.55 9.92-4.13 12.8-3.97 22.96 6.86 7.01 12.01 11.46 19.62 17.67l-.97 1.12c-10.34-6.9-21.51-15.25-20.61-28.4.14-2.09-1.41-3.09-2.81-4.77-1.18-9.51 17.86-14.42 25.3-16.18 17.79-4.22 34.5-5.45 51.87-11.89"/>
  <path fill="#f3701f" d="m1506.61 1510.03.52.31.07 1.61c-3.66 4.87-8.18 6.86-13.77 8.92l-.64-1.3c.42-1.8 9.51-6.34 12.86-8.81z"/>
  <path fill="url(#h)" d="m623.621 1144.15 4.454.16c2.436 5.66-6.268 16.86-3.306 28.86l1.751.52c20.268-23.84 29.71-35.3 57.961-51.53 34.361-20.05 77.887-39.84 118.201-41.32 92.425-3.38 186.027 40.36 269.168 76.03 45.94 19.71 120.44 61.7 169.99 38.8 4.92-6.11 7.54-9.58 7.21-17.95-.67-16.5-16.38-37.08-28.18-47.65-3.79-3.14-8.45-6.42-12.45-9.4l1.62-1.54c-5.89-3.01-23.61-13.6-27.5-17.52-.26-5.65.31-6.77 4.31-10.73 31.98 22.16 53.99 37.13 90.73 51.61 8.36 3.34 16.86 6.31 25.48 8.9 3.23.97 15.69 4.11 17.8 5.3 2.97.64 22.4 4.26 24.07 4.81-.8 2.93-1.44 5.94-2.82 8.62 7.56 9.55 18.18 23.03 17.34 35.5-1.7 25.15-14.65 55.36-32.85 72.97-15.02 14.54-29.44 21.54-49.06 27.13-95.65 27.24-185.6-39.94-274.08-65.71-50.978-14.84-109.922-23.21-162.964-23.96-39.638-.56-96.6 12.84-130.676 34.6-6.696 4.27-20.541 18.56-26.717 24.78-45.12-3.08-92.528-39.94-90.942-88.29.716-21.84 4.99-43.72 31.46-42.99"/>
  <path fill="url(#i)" d="M1186.85 1090.88c31.98 22.16 53.99 37.13 90.73 51.61 8.36 3.34 16.86 6.31 25.48 8.9 3.23.97 15.69 4.11 17.8 5.3 2.97.64 22.4 4.26 24.07 4.81-.8 2.93-1.44 5.94-2.82 8.62 7.56 9.55 18.18 23.03 17.34 35.5-1.7 25.15-14.65 55.36-32.85 72.97-15.02 14.54-29.44 21.54-49.06 27.13-95.65 27.24-185.6-39.94-274.08-65.71-50.978-14.84-109.922-23.21-162.964-23.96-39.638-.56-96.6 12.84-130.676 34.6-6.696 4.27-20.541 18.56-26.717 24.78-45.12-3.08-92.528-39.94-90.942-88.29.716-21.84 4.99-43.72 31.46-42.99-4.82 1.11-10.209 1.5-13.722 4.38-13.284 48.18 2.148 74.07 51.482 81.48 17.142-11.13 29.522-26.16 50.615-34.71 67.635-27.41 147.821-15.88 218.21-5.61 52.086 8.5 112.594 38.04 163.414 53.5 37.94 12.49 76.04 18.62 115.78 22.46 29.08 2.8 59.87 6.57 85.99-10.94 21.45-14.37 35.61-42.7 28.03-68.72-2.77-9.5-16.24-18.06-25.51-21.51-10-5.83-28.25-10.91-39.03-16.12-11-5.32-22.66-12.64-33.5-18.79l-4.51.5c-3.79-3.14-8.45-6.42-12.45-9.4l1.62-1.54c-5.89-3.01-23.61-13.6-27.5-17.52-.26-5.65.31-6.77 4.31-10.73"/>
  <path fill="#5f1c0d" d="M1320.86 1156.69c2.97.64 22.4 4.26 24.07 4.81-.8 2.93-1.44 5.94-2.82 8.62-1.55-.85-.62-.51-2.89-.73l1.68 4.68-1.66-.39c-1.4-1.04-2.57-1.93-3.07-3.68-2.6-9.07-7.89-7.28-15.31-13.31"/>
  <path fill="#fd912c" d="M1210.04 1119.13c5.4 3.43 10.12 6.73 15.34 10.44l-4.51.5c-3.79-3.14-8.45-6.42-12.45-9.4z"/>
  <path fill="#f67d28" d="M1225.38 1129.57c10.84 6.15 22.5 13.47 33.5 18.79 10.78 5.21 29.03 10.29 39.03 16.12-10.53.09-29.09-13.58-36.72-12.22l-.82.77c-5.72 5.28-7.65 4.33-12.25 9.96-.37 9.55 10.57 26.88-6.28 32.68 4.92-6.11 7.54-9.58 7.21-17.95-.67-16.5-16.38-37.08-28.18-47.65z"/>
  <path fill="#fec762" d="M1278.07 1177.29c6.18-.45 14.28.25 18.91 4.36 18.68 16.6 13.7 30.44-9.76 31.78-34.12 2.72-34.97-19.53-9.15-36.14"/>
  <path fill="#cd571f" d="M78.776 518.518c35.37-9.878 62.903-6.047 96.943-14.503 15.787-3.922 39.797-12.098 55.385-17.278 88.221-29.317 144.03-45.763 234.72-13.627-22.603 27.431-44.486 53.353-60.2 85.477-2.405 4.916-5.276 10.57-7.948 15.266-5.369.365-46.797-19.631-56.628-22.604-69.938-21.155-119.885 1.097-187.362-1.271-8.083-.284-16.305-.993-24.26-2.475-10.111-1.883-23.354-7.121-33.4784-5.844-2.6895.34-4.801 1.196-6.465 3.42a10.566 10.566 0 0 0-1.8469 8.6c1.2655 5.503 4.3116 7.282 8.8513 9.883-.4892-2.742-.6796-3.414-.6278-6.162 2.6689-.525 17.7998 4.801 21.7388 5.673 24.094 5.337 56.425 9.608 80.923 6.117 44.404-6.327 82.142-10.478 121.783 16.091 15.851 10.624 33.536 31.333 41.404 49.281-13.838 44.917-17.513 86.034-13.256 132.777 3.364 14.904 5.114 30.882 8.343 46.181 9.544 45.222 28.094 80.305 48.707 121.05-154.361-36.861-262.49-152.971-310.9734-301.453a415.3 415.3 0 0 1-19.8153-96.128c-.6362-6.916-3.8123-16.463 4.0627-18.471"/>
  <path fill="#7c281b" d="M96.487 563.562c-.4892-2.742-.6796-3.414-.6278-6.162 2.6689-.525 17.7998 4.801 21.7388 5.673 24.094 5.337 56.425 9.608 80.923 6.117 44.404-6.327 82.142-10.478 121.783 16.091 15.851 10.624 33.536 31.333 41.404 49.281-13.838 44.917-17.513 86.034-13.256 132.777-20.705-12.581-72.332-60.32-87.757-79.205-15.402-18.858-21.636-37.042-44.253-55.278-35.914-28.957-82.115-40.087-118.439-68.105z"/>
  <path fill="url(#j)" d="M78.776 518.518c35.37-9.878 62.903-6.047 96.943-14.503 15.787-3.922 39.797-12.098 55.385-17.278 88.221-29.317 144.03-45.763 234.72-13.627-22.603 27.431-44.486 53.353-60.2 85.477-2.405 4.916-5.276 10.57-7.948 15.266-5.196-7.213-26.98-19.708-35.592-23.523-38.198-16.945-83.911-26.468-125.561-20.022-40.119 6.208-78.284 13.778-118.545 2.311-7.271-2.07-14.638-4.799-21.9839-6.674-5.3319-1.361-9.5149-.056-14.9338-2.09-2.5252-3.166-1.8372-1.43-2.2843-5.337"/>
  <path fill="#f67d28" d="M170.685 724.693c18.694 8.462 43.265 36.56 63.279 49.601 20.353 13.263 30.458 15.856 51.042 25.208 21.659 9.841 42.752 54.12 50.14 76.032-9.368-2.81-28.315-8.901-36.74-14.16-46.001-28.717-86.93-71.743-119.664-114.61-6.601-8.645-9.426-12.129-8.057-22.071"/>
  <path fill="#cd571f" d="M733.14 1292.15c17.469-19.01 57.904-33.44 83.198-37.61 61.926-10.41 120.768-9.05 181.261 6.81 65.621 17.2 130.611 60.15 195.651 72.87 27.98 5.3 56.72 5.28 84.69-.05 4.06 6.1 29.48 19.58 37.46 24.41-30.69 18.3-79.4 30.24-113.52 14.7-5.97-2.72-18.7-14.22-24.13-12.67-1.64 13.12 34.69 35.56 44.48 42.44-34.26 22.85-72.11 39.81-111.97 50.19-89.78 23.77-190.904 15.95-272.042-31.3-50.136-29.19-90.225-72.64-105.078-129.79"/>
  <path fill="#f3701f" d="M905.38 1256.43c9.675-.47 19.373-.09 28.983 1.11 69.787 9.11 197.007 71.4 240.037 127.93-30.28 30.59-94.34 42.66-136.14 49.08-80.605 7.15-154.669-.5-220.993-51.67-12.631-9.75-40.692-34.54-45.329-51.3-1.582-5.72 10.473-25.6 14.64-30.26 29.038-32.5 77.839-42.02 118.802-44.89"/>
  <path fill="#fea33a" d="M903.648 1286.4c55.069-2.09 145.182 31.58 154.852 92.7-29.14 17.85-48.89 22.6-83.701 23.02-46.891.09-98.245-10.7-135.456-39.94-31.305-24.6-24.984-54.01 11.435-65.9 19.325-6.32 32.579-8.9 52.87-9.88"/>
  <path fill="#fec762" d="M886.784 1300.16c18.988-1.57 46.045 1.58 61.586 13.04 24.011 17.7 18.701 34.58-9.446 38.47-20.186.86-40.238-3.63-58.132-13.01-26.683-14.21-22.228-31.38 5.992-38.5"/>
  <path fill="#fedd8e" d="M1221.25 1844.59c13.72-2.58 28.22-.69 42.29-.77 31.88-.2 59.5-.21 91.15 3.02 20.68 4.29 21.82 21.64 23.22 39.18l-14.87 2.68c-35.64 5.79-107.24 4.46-142.69-2.8-.64-8.45-.28-17.86-.15-26.4-.23-5.21.46-9.75 1.05-14.91"/>
  <path fill="#817133" d="M1354.69 1846.84c20.68 4.29 21.82 21.64 23.22 39.18l-14.87 2.68c-35.64 5.79-107.24 4.46-142.69-2.8-.64-8.45-.28-17.86-.15-26.4 5.64 5.81 10.7 10.71 18.92 12.6 13.03 2.99 107.41 4.11 115.97-2.07 3.06-2.2 2.77-7.73 2.91-11.03-1.53-4.2-3.22-7.75-3.31-12.16"/>
  <path fill="#9d873e" d="M1354.69 1846.84c20.68 4.29 21.82 21.64 23.22 39.18l-14.87 2.68c-1.33-.19-1.84-.5-3.11-.99-2.52-14.06.38-17.62-.56-29.54l-1.37.83c-1.53-4.2-3.22-7.75-3.31-12.16"/>
  <path fill="#cd571f" d="M1261.39 1581.72c.3 1.54.29.98.21 2.45-3.59 67.93 14.05 135.96 40.72 198.01-6.36 3.15-12.45 6.7-18.62 10.21-2.85 1.4-6.7 2.89-9.7 4.16-2.68-6.1-5.03-12.34-7.02-18.69-5.72-18.83-7.89-36.28-11.54-55.34-9.5-49.55-19.01-94.2 5.95-140.8"/>
  <path fill="url(#k)" d="M677.762 1042.09c22.027-.23 38.785 22.65 46.614 40.89-14.955 7.17-28.463 13.79-42.91 22.08-9.75 5.85-19.483 12.3-29.056 18.47-3.771-27.29-7.561-71.05 25.352-81.44"/>
  <path fill="#fefbf0" d="M703.203 1060.52c1.887 4.23.678 18.37.467 23.95-5.929-3-9.736-7.14-16.144-4.22l-1.091-.28c-.477-2.88.487-4.79 1.898-7.26 3.314-1.93 7.151-1.61 11.241-1.97l-.742.03c4.283-2.28 4.1-6.18 4.371-10.25m464.657 65.58c12.08-.82 22.75 2.1 33.66 9.69 9.36 6.51 30.98 28.54 22.35 41.21-1.78 2.61-8.65 2.78-11.85 3.03-18.56.36-41.96-2.94-58.79-10.98-2.04-16.83-2.45-33.96 14.63-42.95"/>
  <path fill="#a63b1a" d="M1621 1513.24c15.85.29 27.6 2.49 42.53 7.39l-5.72 7.89c-2.29 2.53-4.04 2.79-7.28 1.7-6.55-2.22-26.81-9.1-30.29-14.78z"/>
  <path fill="#6e4428" d="M1261.26 1800.74c4.26 3.86 13.11 23.59 15.1 29.69-3.19-.13-3.65.09-6.51-1.41-5.86-7.26-6.86-18.87-8.59-28.28"/>
</svg>
